<?xml version="1.0" standalone="no"?>
<!DOCTYPE svg PUBLIC "-//W3C//DTD SVG 20010904//EN"
 "http://www.w3.org/TR/2001/REC-SVG-20010904/DTD/svg10.dtd">
<svg version="1.0" xmlns="http://www.w3.org/2000/svg"
 width="1024.000000pt" height="1024.000000pt" viewBox="0 0 1024.000000 1024.000000"
 preserveAspectRatio="xMidYMid meet">
<metadata>
Created by potrace 1.16, written by Peter Selinger 2001-2019
</metadata>
<g transform="translate(0.000000,1024.000000) scale(0.100000,-0.100000)"
fill="#000000" stroke="none">
<path d="M187 10052 c-147 -147 -188 -194 -185 -211 2 -18 40 15 213 189 175
175 206 210 185 210 -19 0 -69 -44 -213 -188z"/>
<path d="M287 9952 c-227 -227 -288 -294 -285 -311 2 -17 59 35 313 289 255
255 305 310 285 310 -20 0 -89 -64 -313 -288z"/>
<path d="M387 9852 c-307 -307 -388 -393 -385 -411 2 -17 79 55 413 389 335
335 405 410 385 410 -20 0 -109 -84 -413 -388z"/>
<path d="M487 9752 c-388 -388 -488 -493 -485 -511 2 -17 99 74 513 489 415
415 505 510 485 510 -20 0 -129 -104 -513 -488z"/>
<path d="M587 9652 c-468 -468 -588 -593 -585 -611 2 -17 118 94 613 589 495
495 605 610 585 610 -20 0 -149 -124 -613 -588z"/>
<path d="M687 9552 c-548 -548 -688 -693 -685 -711 2 -17 138 114 713 689 575
575 705 710 685 710 -20 0 -169 -144 -713 -688z"/>
<path d="M787 9452 c-629 -629 -788 -793 -785 -811 2 -17 158 133 813 789 655
655 805 810 785 810 -20 0 -189 -164 -813 -788z"/>
<path d="M887 9352 c-709 -709 -888 -893 -885 -911 2 -17 177 153 913 889 735
735 905 910 885 910 -20 0 -209 -184 -913 -888z"/>
<path d="M987 9252 c-789 -789 -988 -993 -985 -1011 2 -17 197 173 1013 989
815 815 1005 1010 985 1010 -20 0 -229 -204 -1013 -988z"/>
<path d="M1087 9152 c-870 -870 -1088 -1093 -1085 -1111 2 -17 217 193 1113
1089 895 895 1105 1110 1085 1110 -20 0 -249 -224 -1113 -1088z"/>
<path d="M1187 9052 c-950 -950 -1188 -1193 -1185 -1211 2 -17 237 212 1213
1189 975 975 1205 1210 1185 1210 -20 0 -269 -244 -1213 -1188z"/>
<path d="M1287 8952 c-1030 -1030 -1288 -1293 -1285 -1311 2 -17 256 232 1313
1289 1055 1055 1305 1310 1285 1310 -20 0 -289 -264 -1313 -1288z"/>
<path d="M1387 8852 c-1110 -1110 -1388 -1393 -1385 -1411 2 -17 276 252 1413
1389 1135 1135 1405 1410 1385 1410 -20 0 -309 -284 -1413 -1388z"/>
<path d="M1487 8752 c-1191 -1191 -1488 -1493 -1485 -1511 2 -17 296 271 1513
1489 1215 1215 1505 1510 1485 1510 -20 0 -329 -304 -1513 -1488z"/>
<path d="M1587 8652 c-1271 -1271 -1588 -1593 -1585 -1611 2 -17 315 291 1613
1589 1295 1295 1605 1610 1585 1610 -20 0 -349 -324 -1613 -1588z"/>
<path d="M1687 8552 c-1351 -1351 -1688 -1693 -1685 -1711 2 -17 335 311 1713
1689 1375 1375 1705 1710 1685 1710 -20 0 -369 -344 -1713 -1688z"/>
<path d="M1787 8452 c-1432 -1432 -1788 -1793 -1785 -1811 2 -17 355 330 1813
1789 1455 1455 1805 1810 1785 1810 -20 0 -389 -364 -1813 -1788z"/>
<path d="M1887 8352 c-1512 -1512 -1888 -1893 -1885 -1911 2 -17 374 350 1913
1889 1535 1535 1905 1910 1885 1910 -20 0 -409 -384 -1913 -1888z"/>
<path d="M1987 8252 c-1592 -1592 -1988 -1993 -1985 -2011 2 -17 394 370 2013
1989 1615 1615 2005 2010 1985 2010 -20 0 -429 -404 -2013 -1988z"/>
<path d="M2087 8152 c-1673 -1673 -2088 -2093 -2085 -2111 2 -17 414 390 2113
2089 1695 1695 2105 2110 2085 2110 -20 0 -449 -424 -2113 -2088z"/>
<path d="M2187 8052 c-1753 -1753 -2188 -2193 -2185 -2211 2 -17 433 409 2213
2189 1775 1775 2205 2210 2185 2210 -20 0 -469 -444 -2213 -2188z"/>
<path d="M2287 7952 c-1833 -1833 -2288 -2293 -2285 -2311 2 -17 453 429 2313
2289 1855 1855 2305 2310 2285 2310 -20 0 -489 -464 -2313 -2288z"/>
<path d="M2387 7852 c-1914 -1914 -2388 -2393 -2385 -2411 2 -17 473 449 2413
2389 1935 1935 2405 2410 2385 2410 -20 0 -509 -484 -2413 -2388z"/>
<path d="M2487 7752 c-1994 -1994 -2488 -2493 -2485 -2511 2 -17 493 468 2513
2489 2015 2015 2505 2510 2485 2510 -20 0 -529 -504 -2513 -2488z"/>
<path d="M2587 7652 c-2074 -2074 -2588 -2593 -2585 -2611 2 -17 512 488 2613
2589 2095 2095 2605 2610 2585 2610 -20 0 -549 -524 -2613 -2588z"/>
<path d="M2687 7552 c-2154 -2154 -2688 -2693 -2685 -2711 2 -17 532 508 2713
2689 2175 2175 2705 2710 2685 2710 -20 0 -569 -544 -2713 -2688z"/>
<path d="M2787 7452 c-2235 -2235 -2788 -2793 -2785 -2811 2 -17 552 527 2813
2789 2255 2255 2805 2810 2785 2810 -20 0 -589 -564 -2813 -2788z"/>
<path d="M4585 9050 c-875 -875 -1196 -1190 -1212 -1190 -17 0 -23 -6 -23 -23
0 -16 -440 -462 -1675 -1697 -1333 -1333 -1675 -1680 -1675 -1700 0 -20 328
303 1675 1650 l1675 1675 0 -75 0 -75 -1675 -1675 c-1333 -1333 -1675 -1680
-1675 -1700 0 -20 328 303 1675 1650 l1675 1675 0 -75 0 -75 -1675 -1675
c-1333 -1333 -1675 -1680 -1675 -1700 0 -20 328 303 1675 1650 l1675 1675 0
-75 0 -75 -1675 -1675 c-1333 -1333 -1675 -1680 -1675 -1700 0 -20 328 303
1675 1650 l1675 1675 0 -75 0 -75 -1675 -1675 c-1333 -1333 -1675 -1680 -1675
-1700 0 -20 328 303 1675 1650 l1675 1675 0 -75 0 -75 -1675 -1675 c-1333
-1333 -1675 -1680 -1675 -1700 0 -20 328 303 1675 1650 l1675 1675 0 -75 0
-75 -1675 -1675 c-1333 -1333 -1675 -1680 -1675 -1700 0 -20 328 303 1675
1650 l1675 1675 0 -75 0 -75 -1675 -1675 c-1333 -1333 -1675 -1680 -1675
-1700 0 -20 328 303 1675 1650 l1675 1675 0 -75 0 -75 -1675 -1675 c-1333
-1333 -1675 -1680 -1675 -1700 0 -20 328 303 1675 1650 l1675 1675 0 -75 0
-75 -1675 -1675 c-1333 -1333 -1675 -1680 -1675 -1700 0 -20 328 303 1675
1650 l1675 1675 0 -75 0 -75 -1675 -1675 c-1333 -1333 -1675 -1680 -1675
-1700 0 -20 328 303 1675 1650 l1675 1675 0 -75 0 -75 -1675 -1675 c-1333
-1333 -1675 -1680 -1675 -1700 0 -20 328 303 1675 1650 l1675 1675 0 -75 0
-75 -1675 -1675 c-1333 -1333 -1675 -1680 -1675 -1700 0 -20 328 303 1675
1650 l1675 1675 0 -75 0 -75 -1675 -1675 c-1333 -1333 -1675 -1680 -1675
-1700 0 -20 328 303 1675 1650 l1675 1675 0 -75 0 -75 -1675 -1675 c-1333
-1333 -1675 -1680 -1675 -1700 0 -20 328 303 1675 1650 l1675 1675 0 -75 0
-75 -1675 -1675 c-1333 -1333 -1675 -1680 -1675 -1700 0 -20 328 303 1675
1650 l1675 1675 0 -75 0 -75 -1675 -1675 c-1333 -1333 -1675 -1680 -1675
-1700 0 -20 328 303 1675 1650 l1675 1675 0 -75 0 -75 -1675 -1675 c-1333
-1333 -1675 -1680 -1675 -1700 0 -20 328 303 1675 1650 l1675 1675 0 -75 0
-75 -1675 -1675 c-1333 -1333 -1675 -1680 -1675 -1700 0 -20 328 303 1675
1650 l1675 1675 0 -75 0 -75 -1675 -1675 c-1333 -1333 -1675 -1680 -1675
-1700 0 -20 328 303 1675 1650 l1675 1675 0 -75 0 -75 -1675 -1675 c-1333
-1333 -1675 -1680 -1675 -1700 0 -20 328 303 1675 1650 l1675 1675 0 -75 0
-75 -1675 -1675 c-1333 -1333 -1675 -1680 -1675 -1700 0 -20 328 303 1675
1650 l1675 1675 0 -75 0 -75 -1675 -1675 c-1333 -1333 -1675 -1680 -1675
-1700 0 -20 328 303 1675 1650 l1675 1675 0 -75 0 -75 -1607 -1607 c-1292
-1292 -1603 -1608 -1583 -1608 20 0 349 324 1607 1582 l1583 1583 0 -75 0 -75
-1507 -1507 c-1212 -1212 -1503 -1508 -1483 -1508 20 0 329 304 1507 1482
l1483 1483 0 -75 0 -75 -1407 -1407 c-1132 -1132 -1403 -1408 -1383 -1408 20
0 309 284 1407 1382 l1383 1383 0 -75 0 -75 -1307 -1307 c-1052 -1052 -1303
-1308 -1283 -1308 20 0 289 264 1307 1282 l1283 1283 0 -75 0 -75 -1207 -1207
c-973 -973 -1203 -1208 -1183 -1208 20 0 270 245 1215 1190 l1190 1190 75 0
75 0 -1190 -1190 c-959 -959 -1185 -1190 -1165 -1190 20 0 270 245 1215 1190
l1190 1190 75 0 75 0 -1190 -1190 c-959 -959 -1185 -1190 -1165 -1190 20 0
270 245 1215 1190 l1190 1190 75 0 75 0 -1190 -1190 c-959 -959 -1185 -1190
-1165 -1190 20 0 270 245 1215 1190 l1190 1190 75 0 75 0 -1190 -1190 c-959
-959 -1185 -1190 -1165 -1190 20 0 270 245 1215 1190 l1190 1190 75 0 75 0
-1190 -1191 c-948 -949 -1184 -1190 -1162 -1187 21 2 441 417 1957 1933 l1930
1930 0 -75 0 -75 -1857 -1857 c-1492 -1492 -1853 -1858 -1833 -1858 20 0 399
374 1857 1832 l1833 1833 0 -75 0 -75 -1757 -1757 c-1412 -1412 -1753 -1758
-1733 -1758 20 0 379 354 1757 1732 l1733 1733 0 -75 0 -75 -1657 -1657
c-1332 -1332 -1653 -1658 -1633 -1658 20 0 359 334 1657 1632 l1633 1633 0
-75 0 -75 -1557 -1557 c-1252 -1252 -1553 -1558 -1533 -1558 20 0 339 314
1557 1532 l1533 1533 0 -75 0 -75 -1457 -1457 c-1172 -1172 -1453 -1458 -1433
-1458 20 0 319 294 1457 1432 l1433 1433 0 -75 0 -75 -1357 -1357 c-1092
-1092 -1353 -1358 -1333 -1358 20 0 299 274 1357 1332 l1333 1333 0 -75 0 -75
-1257 -1257 c-1013 -1013 -1253 -1258 -1233 -1258 20 0 278 253 1255 1230
l1230 1230 5 -37 c4 -33 9 -38 34 -41 27 -3 -57 -90 -1160 -1193 -958 -958
-1184 -1189 -1164 -1189 20 0 270 245 1215 1190 l1190 1190 75 0 75 0 -1190
-1190 c-959 -959 -1185 -1190 -1165 -1190 20 0 270 245 1215 1190 l1190 1190
75 0 75 0 -1190 -1190 c-959 -959 -1185 -1190 -1165 -1190 20 0 270 245 1215
1190 l1190 1190 75 0 75 0 -1190 -1190 c-959 -959 -1185 -1190 -1165 -1190 20
0 270 245 1215 1190 l1190 1190 75 0 75 0 -1190 -1190 c-959 -959 -1185 -1190
-1165 -1190 20 0 270 245 1215 1190 l1190 1190 62 0 63 0 0 63 0 62 1675 1675
c1333 1333 1675 1680 1675 1700 0 20 -328 -303 -1675 -1650 l-1675 -1675 0 75
0 75 1675 1675 c1333 1333 1675 1680 1675 1700 0 20 -328 -303 -1675 -1650
l-1675 -1675 0 75 0 75 1675 1675 c1333 1333 1675 1680 1675 1700 0 20 -328
-303 -1675 -1650 l-1675 -1675 0 75 0 75 1675 1675 c1333 1333 1675 1680 1675
1700 0 20 -328 -303 -1675 -1650 l-1675 -1675 0 75 0 75 1675 1675 c1333 1333
1675 1680 1675 1700 0 20 -328 -303 -1675 -1650 l-1675 -1675 0 75 0 75 1675
1675 c1333 1333 1675 1680 1675 1700 0 20 -328 -303 -1675 -1650 l-1675 -1675
0 75 0 75 1675 1675 c1333 1333 1675 1680 1675 1700 0 20 -328 -303 -1675
-1650 l-1675 -1675 0 75 0 75 1675 1675 c1333 1333 1675 1680 1675 1700 0 20
-328 -303 -1675 -1650 l-1675 -1675 0 75 0 75 1675 1675 c1333 1333 1675 1680
1675 1700 0 20 -328 -303 -1675 -1650 l-1675 -1675 0 75 0 75 1675 1675 c1333
1333 1675 1680 1675 1700 0 20 -328 -303 -1675 -1650 l-1675 -1675 0 75 0 75
1675 1675 c1333 1333 1675 1680 1675 1700 0 20 -328 -303 -1675 -1650 l-1675
-1675 0 75 0 75 1675 1675 c1333 1333 1675 1680 1675 1700 0 20 -328 -303
-1675 -1650 l-1675 -1675 0 75 0 75 1675 1675 c1333 1333 1675 1680 1675 1700
0 20 -328 -303 -1675 -1650 l-1675 -1675 0 75 0 75 1675 1675 c1333 1333 1675
1680 1675 1700 0 20 -328 -303 -1675 -1650 l-1675 -1675 0 75 0 75 1675 1675
c1333 1333 1675 1680 1675 1700 0 20 -328 -303 -1675 -1650 l-1675 -1675 0 75
0 75 1675 1675 c1333 1333 1675 1680 1675 1700 0 20 -328 -303 -1675 -1650
l-1675 -1675 0 75 0 75 1675 1675 c1333 1333 1675 1680 1675 1700 0 20 -328
-303 -1675 -1650 l-1675 -1675 0 75 0 75 1675 1675 c1333 1333 1675 1680 1675
1700 0 20 -328 -303 -1675 -1650 l-1675 -1675 0 75 0 75 1675 1675 c1333 1333
1675 1680 1675 1700 0 20 -328 -303 -1675 -1650 l-1675 -1675 0 75 0 75 1675
1675 c1333 1333 1675 1680 1675 1700 0 20 -328 -303 -1675 -1650 l-1675 -1675
0 75 0 75 1675 1675 c1333 1333 1675 1680 1675 1700 0 20 -328 -303 -1675
-1650 l-1675 -1675 0 75 0 75 1675 1675 c1333 1333 1675 1680 1675 1700 0 20
-328 -303 -1675 -1650 l-1675 -1675 0 75 0 75 1667 1667 c1340 1340 1663 1668
1643 1668 -20 0 -361 -336 -1667 -1642 l-1643 -1643 0 75 0 75 1567 1567
c1260 1260 1563 1568 1543 1568 -20 0 -341 -316 -1567 -1542 l-1543 -1543 0
75 0 75 1467 1467 c1180 1180 1463 1468 1443 1468 -20 0 -321 -296 -1467
-1442 l-1443 -1443 0 75 0 75 1367 1367 c1100 1100 1363 1368 1343 1368 -20 0
-301 -276 -1367 -1342 l-1343 -1343 0 75 0 75 1267 1267 c1020 1020 1263 1268
1243 1268 -20 0 -281 -256 -1267 -1242 l-1243 -1243 0 53 c0 47 -2 52 -22 52
-17 0 279 302 1167 1190 959 959 1185 1190 1165 1190 -20 0 -270 -245 -1215
-1190 l-1190 -1190 -75 0 -75 0 1190 1190 c959 959 1185 1190 1165 1190 -20 0
-270 -245 -1215 -1190 l-1190 -1190 -75 0 -75 0 1190 1190 c959 959 1185 1190
1165 1190 -20 0 -270 -245 -1215 -1190 l-1190 -1190 -75 0 -75 0 1190 1190
c959 959 1185 1190 1165 1190 -20 0 -270 -245 -1215 -1190 l-1190 -1190 -75 0
-75 0 1190 1190 c959 959 1185 1190 1165 1190 -20 0 -270 -245 -1215 -1190
l-1189 -1189 -71 -3 -70 -3 -3 -70 -3 -71 -729 -729 -730 -730 0 75 0 75 1917
1917 c1540 1540 1913 1918 1893 1918 -20 0 -411 -386 -1917 -1892 l-1893
-1893 0 75 0 75 1817 1817 c1460 1460 1813 1818 1793 1818 -20 0 -391 -366
-1817 -1792 l-1793 -1793 0 75 0 75 1717 1717 c1380 1380 1713 1718 1693 1718
-20 0 -371 -346 -1717 -1692 l-1693 -1693 0 75 0 75 1617 1617 c1300 1300
1613 1618 1593 1618 -20 0 -351 -326 -1617 -1592 l-1593 -1593 0 75 0 75 1517
1517 c1220 1220 1513 1518 1493 1518 -20 0 -331 -306 -1517 -1492 l-1493
-1493 0 75 0 75 1417 1417 c1140 1140 1413 1418 1393 1418 -20 0 -311 -286
-1417 -1392 l-1393 -1393 0 75 0 75 1317 1317 c1060 1060 1313 1318 1293 1318
-20 0 -291 -266 -1317 -1292 l-1293 -1293 0 75 0 75 1217 1217 c981 981 1213
1218 1193 1218 -20 0 -270 -245 -1217 -1192 l-1193 -1193 -72 3 -71 4 1189
1189 c958 958 1184 1189 1164 1189 -20 0 -270 -245 -1215 -1190 l-1190 -1190
-75 0 -75 0 1190 1190 c959 959 1185 1190 1165 1190 -20 0 -270 -245 -1215
-1190 l-1190 -1190 -75 0 -75 0 1190 1190 c959 959 1185 1190 1165 1190 -20 0
-270 -245 -1215 -1190 l-1190 -1190 -75 0 -75 0 1190 1190 c959 959 1185 1190
1165 1190 -20 0 -270 -245 -1215 -1190 l-1190 -1190 -75 0 -75 0 1190 1190
c959 959 1185 1190 1165 1190 -20 0 -270 -245 -1215 -1190z m538 -2262 l-728
-728 -3 72 -3 72 728 728 728 728 3 -72 3 -72 -728 -728z m0 -200 l-728 -728
-3 72 -3 72 728 728 728 728 3 -72 3 -72 -728 -728z m0 -200 l-728 -728 -3 72
-3 72 728 728 728 728 3 -72 3 -72 -728 -728z m0 -200 l-728 -728 -3 72 -3 72
728 728 728 728 3 -72 3 -72 -728 -728z m0 -200 l-728 -728 -3 72 -3 72 728
728 728 728 3 -72 3 -72 -728 -728z m0 -200 l-728 -728 -3 72 -3 72 728 728
728 728 3 -72 3 -72 -728 -728z m0 -200 l-728 -728 -3 72 -3 72 728 728 728
728 3 -72 3 -72 -728 -728z m0 -200 l-728 -728 -3 72 -3 72 728 728 728 728 3
-72 3 -72 -728 -728z m0 -200 l-728 -728 -3 72 -3 72 728 728 728 728 3 -72 3
-72 -728 -728z m0 -200 l-728 -728 -3 72 -3 72 728 728 728 728 3 -72 3 -72
-728 -728z m0 -200 l-728 -728 -3 72 -3 72 728 728 728 728 3 -72 3 -72 -728
-728z m0 -200 l-728 -728 -3 72 -3 72 728 728 728 728 3 -72 3 -72 -728 -728z
m0 -200 l-728 -728 -3 72 -3 72 728 728 728 728 3 -72 3 -72 -728 -728z m0
-200 l-728 -728 -3 72 -3 72 728 728 728 728 3 -72 3 -72 -728 -728z m0 -200
l-728 -728 -3 72 -3 72 728 728 728 728 3 -72 3 -72 -728 -728z m0 -200 l-728
-728 -3 72 -3 72 728 728 728 728 3 -72 3 -72 -728 -728z m0 -200 l-728 -728
-3 72 -3 72 728 728 728 728 3 -72 3 -72 -728 -728z m0 -200 l-728 -728 -3 72
-3 72 728 728 728 728 3 -72 3 -72 -728 -728z m0 -200 l-728 -728 -3 72 -3 72
728 728 728 728 3 -72 3 -72 -728 -728z"/>
<path d="M7385 2850 c-2287 -2287 -2845 -2850 -2825 -2850 37 0 5683 5647
5678 5679 -2 17 -560 -535 -2853 -2829z"/>
<path d="M7485 2750 c-2207 -2207 -2745 -2750 -2725 -2750 37 0 5483 5447
5478 5479 -2 17 -540 -516 -2753 -2729z"/>
<path d="M7585 2650 c-2127 -2127 -2645 -2650 -2625 -2650 37 0 5283 5247
5278 5279 -2 17 -520 -496 -2653 -2629z"/>
<path d="M7685 2550 c-2047 -2047 -2545 -2550 -2525 -2550 37 0 5083 5047
5078 5079 -2 17 -500 -476 -2553 -2529z"/>
<path d="M7785 2450 c-1967 -1967 -2445 -2450 -2425 -2450 37 0 4883 4847
4878 4879 -2 17 -481 -456 -2453 -2429z"/>
<path d="M7885 2350 c-1887 -1887 -2345 -2350 -2325 -2350 37 0 4683 4647
4678 4679 -2 17 -461 -437 -2353 -2329z"/>
<path d="M7985 2250 c-1807 -1807 -2245 -2250 -2225 -2250 37 0 4483 4447
4478 4479 -2 17 -441 -417 -2253 -2229z"/>
<path d="M8085 2150 c-1727 -1727 -2145 -2150 -2125 -2150 37 0 4283 4247
4278 4279 -2 17 -422 -397 -2153 -2129z"/>
<path d="M8185 2050 c-1647 -1647 -2045 -2050 -2025 -2050 37 0 4083 4047
4078 4079 -2 17 -402 -378 -2053 -2029z"/>
<path d="M8285 1950 c-1567 -1567 -1945 -1950 -1925 -1950 37 0 3883 3847
3878 3879 -2 17 -382 -358 -1953 -1929z"/>
<path d="M8385 1850 c-1487 -1487 -1845 -1850 -1825 -1850 37 0 3683 3647
3678 3679 -2 17 -363 -338 -1853 -1829z"/>
<path d="M8485 1750 c-1407 -1407 -1745 -1750 -1725 -1750 37 0 3483 3447
3478 3479 -2 17 -343 -319 -1753 -1729z"/>
<path d="M8585 1650 c-1327 -1327 -1645 -1650 -1625 -1650 37 0 3283 3247
3278 3279 -2 17 -323 -299 -1653 -1629z"/>
<path d="M8685 1550 c-1247 -1247 -1545 -1550 -1525 -1550 37 0 3083 3047
3078 3079 -2 17 -303 -279 -1553 -1529z"/>
<path d="M8785 1450 c-1167 -1167 -1445 -1450 -1425 -1450 37 0 2883 2847
2878 2879 -2 17 -284 -260 -1453 -1429z"/>
<path d="M8885 1350 c-1087 -1087 -1345 -1350 -1325 -1350 37 0 2683 2647
2678 2679 -2 17 -264 -240 -1353 -1329z"/>
<path d="M8985 1250 c-1007 -1007 -1245 -1250 -1225 -1250 37 0 2483 2447
2478 2479 -2 17 -244 -220 -1253 -1229z"/>
<path d="M9085 1150 c-927 -927 -1145 -1150 -1125 -1150 37 0 2283 2247 2278
2279 -2 17 -225 -200 -1153 -1129z"/>
<path d="M9185 1050 c-847 -847 -1045 -1050 -1025 -1050 37 0 2083 2047 2078
2079 -2 17 -205 -181 -1053 -1029z"/>
<path d="M9285 950 c-767 -767 -945 -950 -925 -950 37 0 1883 1847 1878 1879
-2 17 -185 -161 -953 -929z"/>
<path d="M9385 850 c-687 -687 -845 -850 -825 -850 37 0 1683 1647 1678 1679
-2 17 -166 -141 -853 -829z"/>
<path d="M9485 750 c-607 -607 -745 -750 -725 -750 37 0 1483 1447 1478 1479
-2 17 -146 -122 -753 -729z"/>
<path d="M9585 650 c-527 -527 -645 -650 -625 -650 37 0 1283 1247 1278 1279
-2 17 -126 -102 -653 -629z"/>
<path d="M9685 550 c-447 -447 -545 -550 -525 -550 37 0 1083 1047 1078 1079
-2 17 -107 -82 -553 -529z"/>
<path d="M9785 450 c-367 -367 -445 -450 -425 -450 37 0 883 847 878 879 -2
17 -87 -63 -453 -429z"/>
<path d="M9885 350 c-287 -287 -345 -350 -325 -350 37 0 683 647 678 679 -2
17 -67 -43 -353 -329z"/>
<path d="M9985 250 c-207 -207 -246 -250 -225 -250 37 0 483 447 478 479 -2
18 -47 -23 -253 -229z"/>
</g>
</svg>
